<svg width="19" height="17" viewBox="0 0 19 17" fill="none" xmlns="http://www.w3.org/2000/svg">
<path d="M18.7509 8.49906C18.7509 8.79743 18.6324 9.08358 18.4214 9.29456C18.2104 9.50553 17.9243 9.62406 17.6259 9.62406H3.84464L8.67464 14.4531C8.88598 14.6645 9.00471 14.9511 9.00471 15.25C9.00471 15.5489 8.88598 15.8355 8.67464 16.0469C8.46329 16.2582 8.17665 16.377 7.87776 16.377C7.57888 16.377 7.29223 16.2582 7.08089 16.0469L0.330887 9.29687C0.226007 9.19236 0.142791 9.06816 0.0860095 8.93142C0.0292284 8.79467 0 8.64806 0 8.5C0 8.35193 0.0292284 8.20532 0.0860095 8.06858C0.142791 7.93183 0.226007 7.80764 0.330887 7.70312L7.08089 0.953123C7.18553 0.848476 7.30977 0.765465 7.4465 0.708831C7.58322 0.652196 7.72977 0.623047 7.87776 0.623047C8.02575 0.623047 8.1723 0.652196 8.30903 0.708831C8.44576 0.765465 8.56999 0.848476 8.67464 0.953123C8.77928 1.05777 8.8623 1.182 8.91893 1.31873C8.97556 1.45546 9.00471 1.602 9.00471 1.75C9.00471 1.89799 8.97556 2.04454 8.91893 2.18126C8.8623 2.31799 8.77928 2.44223 8.67464 2.54687L3.84464 7.37406H17.6259C17.9243 7.37406 18.2104 7.49259 18.4214 7.70357C18.6324 7.91454 18.7509 8.20069 18.7509 8.49906Z" fill="#F6F7FB"/>
</svg>
