<svg width="24" height="25" viewBox="0 0 24 25" fill="none" xmlns="http://www.w3.org/2000/svg">
<path d="M3 6.25C3 5.52065 3.28973 4.82118 3.80546 4.30546C4.32118 3.78973 5.02065 3.5 5.75 3.5H15.715C16.5769 3.50005 17.4035 3.84249 18.013 4.452L20.048 6.487C20.658 7.097 21 7.924 21 8.786V18.75C21 19.4793 20.7103 20.1788 20.1945 20.6945C19.6788 21.2103 18.9793 21.5 18.25 21.5H5.75C5.02065 21.5 4.32118 21.2103 3.80546 20.6945C3.28973 20.1788 3 19.4793 3 18.75V6.25ZM5.75 5C5.06 5 4.5 5.56 4.5 6.25V18.75C4.5 19.44 5.06 20 5.75 20H6V14.75C6 14.1533 6.23705 13.581 6.65901 13.159C7.08097 12.7371 7.65326 12.5 8.25 12.5H15.75C16.3467 12.5 16.919 12.7371 17.341 13.159C17.7629 13.581 18 14.1533 18 14.75V20H18.25C18.94 20 19.5 19.44 19.5 18.75V8.786C19.5 8.321 19.316 7.876 18.987 7.548L16.952 5.513C16.6937 5.25422 16.3607 5.08286 16 5.023V7.75C16 8.04547 15.9418 8.33805 15.8287 8.61104C15.7157 8.88402 15.5499 9.13206 15.341 9.34099C15.1321 9.54992 14.884 9.71566 14.611 9.82873C14.3381 9.9418 14.0455 10 13.75 10H9.25C8.65326 10 8.08097 9.76295 7.65901 9.34099C7.23705 8.91903 7 8.34674 7 7.75V5H5.75ZM16.5 20V14.75C16.5 14.5511 16.421 14.3603 16.2803 14.2197C16.1397 14.079 15.9489 14 15.75 14H8.25C8.05109 14 7.86032 14.079 7.71967 14.2197C7.57902 14.3603 7.5 14.5511 7.5 14.75V20H16.5ZM8.5 5V7.75C8.5 8.164 8.836 8.5 9.25 8.5H13.75C13.9489 8.5 14.1397 8.42098 14.2803 8.28033C14.421 8.13968 14.5 7.94891 14.5 7.75V5H8.5Z" fill="white"/>
</svg>
